<svg width="181" height="249" viewBox="0 0 181 249" fill="none" xmlns="http://www.w3.org/2000/svg">
<path d="M180.119 100.96H0V129.112H180.119V100.96Z" fill="#33CC99"/>
<path d="M153.027 84.4635H27.0925V167.267H153.027V84.4635Z" fill="#33CC99"/>
<path d="M90.06 132.607C116.649 132.607 138.203 111.052 138.203 84.4635C138.203 57.8747 116.649 36.3201 90.06 36.3201C63.4712 36.3201 41.9167 57.8747 41.9167 84.4635C41.9167 111.052 63.4712 132.607 90.06 132.607Z" fill="#33CC99"/>
<path d="M90.0601 113.622C106.164 113.622 119.219 100.567 119.219 84.4635C119.219 68.3597 106.164 55.3049 90.0601 55.3049C73.9562 55.3049 60.9015 68.3597 60.9015 84.4635C60.9015 100.567 73.9562 113.622 90.0601 113.622Z" fill="#FFCC00"/>
<path d="M90.06 94.0245C95.3404 94.0245 99.621 89.7439 99.621 84.4635C99.621 79.1831 95.3404 74.9025 90.06 74.9025C84.7797 74.9025 80.4991 79.1831 80.4991 84.4635C80.4991 89.7439 84.7797 94.0245 90.06 94.0245Z" fill="black" stroke="#373435" stroke-width="0.666667" stroke-miterlimit="2.61313"/>
<path d="M18.3455 129.112H8.24899V197.566H18.3455V129.112Z" fill="#333300"/>
<path fill-rule="evenodd" clip-rule="evenodd" d="M96.8243 167.267H122.554V248.498H109.689C102.614 248.498 96.8243 242.71 96.8243 235.633V167.267Z" fill="#333300"/>
<path fill-rule="evenodd" clip-rule="evenodd" d="M83.2948 167.267H57.5651V248.498H70.4299C77.5052 248.498 83.2948 242.71 83.2948 235.633V167.267Z" fill="#333300"/>
<path d="M13.2978 198.575C18.3284 198.575 22.4065 194.497 22.4065 189.467C22.4065 184.436 18.3284 180.358 13.2978 180.358C8.26715 180.358 4.18903 184.436 4.18903 189.467C4.18903 194.497 8.26715 198.575 13.2978 198.575Z" fill="#333300"/>
<path fill-rule="evenodd" clip-rule="evenodd" d="M13.2978 201.983L4.44715 210.834C2.09958 208.486 0.781494 205.303 0.781494 201.983C0.781494 195.069 6.38516 189.467 13.2978 189.467C20.2104 189.467 25.814 195.07 25.814 201.983C25.814 205.302 24.4949 208.486 22.1484 210.834L13.2978 201.983Z" fill="#66FFCC"/>
<path d="M13.2978 186.191C17.4354 186.191 20.7897 182.837 20.7897 178.699C20.7897 174.562 17.4354 171.207 13.2978 171.207C9.16014 171.207 5.80591 174.562 5.80591 178.699C5.80591 182.837 9.16014 186.191 13.2978 186.191Z" fill="#333300"/>
<path d="M170.974 129.112H160.877V197.566H170.974V129.112Z" fill="#333300"/>
<path d="M165.925 198.575C170.956 198.575 175.034 194.497 175.034 189.467C175.034 184.436 170.956 180.358 165.925 180.358C160.894 180.358 156.816 184.436 156.816 189.467C156.816 194.497 160.894 198.575 165.925 198.575Z" fill="#333300"/>
<path fill-rule="evenodd" clip-rule="evenodd" d="M165.925 201.983L157.074 210.834C154.727 208.486 153.409 205.303 153.409 201.983C153.409 195.069 159.012 189.467 165.925 189.467C172.838 189.467 178.441 195.07 178.441 201.983C178.441 205.302 177.122 208.486 174.776 210.834L165.925 201.983Z" fill="#66FFCC"/>
<path d="M165.925 186.191C170.063 186.191 173.417 182.837 173.417 178.699C173.417 174.562 170.063 171.207 165.925 171.207C161.787 171.207 158.433 174.562 158.433 178.699C158.433 182.837 161.787 186.191 165.925 186.191Z" fill="#333300"/>
<path d="M4.19106 100.96H0V129.112H4.19106V100.96Z" fill="#FFCC00"/>
<path d="M180.119 100.96H175.928V129.112H180.119V100.96Z" fill="#FFCC00"/>
<path fill-rule="evenodd" clip-rule="evenodd" d="M58.5407 248.498H32.8771C32.8771 234.382 44.4259 222.835 58.5407 222.835V248.498Z" fill="#333300"/>
<path fill-rule="evenodd" clip-rule="evenodd" d="M121.376 248.498H147.04C147.04 234.382 135.491 222.835 121.376 222.835V248.498Z" fill="#333300"/>
<path fill-rule="evenodd" clip-rule="evenodd" d="M90.06 27.0641C121.761 27.0641 147.459 52.7623 147.459 84.4625C147.459 116.164 121.761 141.862 90.06 141.862C58.3588 141.862 32.6606 116.164 32.6606 84.4625C32.6606 52.7623 58.3588 27.0641 90.06 27.0641Z" fill="#00CCFF" fill-opacity="0.301961"/>
<path fill-rule="evenodd" clip-rule="evenodd" d="M77.5448 74.1058C83.8822 74.1058 89.0204 79.243 89.0204 85.5814C89.0204 91.9188 83.8832 97.056 77.5448 97.056C71.2074 97.056 66.0702 91.9188 66.0702 85.5814C66.0702 79.244 71.2074 74.1058 77.5448 74.1058Z" fill="white" fill-opacity="0.501961"/>
<path fill-rule="evenodd" clip-rule="evenodd" d="M90.06 27.0641C114.851 27.0641 135.969 42.7795 143.999 64.7917H36.1209C44.1504 42.7805 65.2693 27.0641 90.06 27.0641Z" fill="#33CC99" stroke="#33CC99" stroke-width="4" stroke-miterlimit="2.61313"/>
<path d="M90.06 27.0641V6.19513" stroke="#33CC99" stroke-width="4" stroke-miterlimit="2.61313"/>
<path d="M90.06 12.3903C93.4815 12.3903 96.2552 9.6166 96.2552 6.19512C96.2552 2.77365 93.4815 0 90.06 0C86.6386 0 83.8649 2.77365 83.8649 6.19512C83.8649 9.6166 86.6386 12.3903 90.06 12.3903Z" fill="#33CC99"/>
</svg>
